<?xml version="1.0" encoding="utf-8"?>
<!-- Generator: Adobe Illustrator 19.2.1, SVG Export Plug-In . SVG Version: 6.00 Build 0)  -->
<svg version="1.1" id="layer" xmlns="http://www.w3.org/2000/svg" x="0px"
     y="0px"
     viewBox="0 0 652 652" style="enable-background:new 0 0 652 652;" xml:space="preserve">
<style type="text/css">
	.st0{fill:#443A31;}
	.st1{fill:#009FE3;}
</style>
	<g id="step0">
	<path class="st0" d="M236.8,377.2c2.4-3.2,3.7-7,3.7-11.3c0-4.8-1.8-9-5.2-12.5c-3.4-3.5-7.6-5.2-12.6-5.2h-17.4
		c-2.4,0-4.2,1.7-4.2,4.2v56.3c0,2.4,1.7,4.2,4.2,4.2h19.5c5.1,0,9.5-1.8,13.1-5.4c3.7-3.7,5.5-8.1,5.5-13.1v-2.5
		c0-3.7-1-7.2-3-10.3C239.4,379.8,238.2,378.4,236.8,377.2z M226.4,370.5c-1.1,1.1-2.6,1.7-4.6,1.7h-8.3v-11.7h9.2
		c1.6,0,2.8,0.4,3.8,1.5c1.1,1.1,1.6,2.3,1.6,3.8C228.1,367.9,227.6,369.3,226.4,370.5z M213.5,384.6h10.4c1.9,0,3.6,0.7,5,2.1
		c1.4,1.5,2.2,3.1,2.2,5v2.5c0,1.7-0.6,3.1-1.8,4.3c-1.3,1.3-2.7,1.8-4.4,1.8h-11.3L213.5,384.6L213.5,384.6z"/>
		<path class="st0" d="M275.5,347.3c-6,0-11.2,2.2-15.4,6.4c-4.2,4.2-6.4,9.4-6.4,15.4V392c0,6,2.2,11.2,6.4,15.4
		c4.2,4.2,9.4,6.4,15.4,6.4c6,0,11.2-2.2,15.4-6.4c4.2-4.2,6.4-9.4,6.4-15.4v-22.9c0-6-2.2-11.2-6.4-15.4
		C286.7,349.4,281.5,347.3,275.5,347.3z M266,369.1c0-2.7,0.9-4.8,2.8-6.7c1.8-1.8,4-2.7,6.6-2.7c2.6,0,4.8,0.9,6.6,2.7
		c1.9,1.9,2.8,4,2.8,6.7V392c0,2.7-0.9,4.8-2.8,6.6c-1.9,1.9-4.1,2.8-6.6,2.8c-2.6,0-4.8-0.9-6.7-2.8c-1.9-1.8-2.8-3.9-2.8-6.6
		L266,369.1L266,369.1z"/>
		<path class="st0" d="M384.7,348.2h-13.9c-2.4,0-4.2,1.7-4.2,4.2v56.3c0,2.4,1.7,4.2,4.2,4.2h16c5.8,0,10.9-2.1,15-6.2
		c4.1-4.1,6.2-9.2,6.2-15v-20.1c0-6.4-2.3-11.9-6.9-16.5C396.7,350.5,391.2,348.2,384.7,348.2z M386.8,400.3h-7.8v-39.8h5.7
		c3.1,0,5.6,1,7.7,3.2c2.2,2.2,3.3,4.7,3.3,7.7v20.1c0,2.5-0.8,4.5-2.6,6.2C391.3,399.5,389.3,400.3,386.8,400.3z"/>
		<path class="st0" d="M454.2,400.3h-20.5v-15.8h17.1c2.3,0,4.1-1.8,4.1-4.2v-4.1c0-2.4-1.7-4.2-4.1-4.2h-17.1v-11.6h20
		c2.4,0,4.2-1.8,4.2-4.2v-4.1c0-2.4-1.7-4.2-4.2-4.2h-28.2c-2.4,0-4.2,1.7-4.2,4.2v56.3c0,2.4,1.7,4.2,4.2,4.2h28.8
		c2.4,0,4.2-1.7,4.2-4.2v-4.1C458.3,402.1,456.6,400.3,454.2,400.3z"/>
		<path class="st0" d="M500.3,351.1c-0.6-1.8-2.1-2.9-3.9-2.9h-7.5c-1.8,0-3.3,1.1-3.9,3l-17.1,55.8c-0.2,0.5-0.3,1-0.3,1.6
		c0,2.4,1.7,4.2,4.1,4.2h4.2c1.9,0,3.5-1.2,4-3l5-16.4h15.4l5,16.5l0.1,0.2c0.7,1.6,2.1,2.6,3.9,2.6h4.2c2.4,0,4.2-1.8,4.2-4.2
		c0-0.6-0.1-1.2-0.3-1.5L500.3,351.1z M497.2,381h-9.2l4.6-15.4L497.2,381z"/>
		<path class="st0" d="M563.9,348.2h-4.1c-2.4,0-4.2,1.7-4.2,4.2v41.1c0,2.3-0.7,4.1-2.3,5.7c-1.6,1.6-3.5,2.4-5.7,2.4
		c-2.2,0-4-0.8-5.7-2.4c-1.6-1.5-2.3-3.4-2.3-5.6v-41.1c0-2.4-1.7-4.2-4.2-4.2h-4.1c-2.4,0-4.2,1.7-4.2,4.2v41.1
		c0,5.6,2,10.5,6,14.5c4,4,8.8,6,14.5,6c5.6,0,10.5-2,14.5-6c3.9-4,5.9-8.9,5.9-14.4v-41.1C568,349.9,566.3,348.2,563.9,348.2z"/>
		<path class="st0" d="M606.8,380.3l14.4-26.4l0.3-0.8c0.4-1.7-0.2-2.9-0.7-3.6c-0.4-0.6-1.5-1.5-3.3-1.5h-4.2
		c-1.7,0-3.1,0.9-3.7,2.4L600,368l-9.6-17.4c-0.6-1.5-2-2.5-3.7-2.5h-4.2c-1.8,0-2.8,0.9-3.3,1.5c-0.6,0.7-1.1,1.9-0.7,3.7l0.3,0.7
		l14.4,26.3l-14.4,26.2l-0.2,0.6c-0.6,1.9,0.1,3.2,0.6,3.8c0.4,0.6,1.5,1.6,3.4,1.6h4.2c1.6,0,3.1-0.9,3.7-2.4l9.5-17.3l9.4,17.3
		c0.7,1.6,2.1,2.5,3.8,2.5h4.2c1.9,0,2.9-1,3.4-1.6c0.5-0.6,1.1-1.9,0.5-3.9L606.8,380.3z"/>
		<path class="st0" d="M353.1,407l-11.3-21.5c1.4-0.8,2.7-1.8,4-3c3.6-3.6,5.4-7.9,5.4-12.9v-3.2c0-5-1.8-9.4-5.4-12.9
		c-3.5-3.5-7.8-5.3-12.9-5.3h-18.1c-2.4,0-4.2,1.7-4.2,4.2v56.3c0,2.4,1.7,4.2,4.2,4.2h4.1c2.4,0,4.1-1.8,4.1-4.2v-20.8h6.6
		l11.6,22.2c0.7,1.6,2.1,2.5,3.8,2.5h4.2c1.9,0,2.9-1,3.4-1.6c0.5-0.6,1.1-1.9,0.6-3.8C353.2,407,353.1,407,353.1,407z M338.8,366.4
		v3.2c0,1.6-0.5,2.8-1.8,4.1c-1.2,1.2-2.5,1.8-4.1,1.8H323v-14.9h9.9c1.6,0,2.9,0.5,4,1.6C338.2,363.5,338.8,364.8,338.8,366.4z"/>
		<path class="st0" d="M164.9,375.9h-1.2c-0.3,0-0.4-0.2-0.4-0.4v-0.3c0-0.3-0.2-0.4-0.4-0.4c-0.1,0-0.2,0-0.2,0.1
		c-1.4,1.1-2.9,1.6-4.6,1.6c-2,0-3.7-0.7-5.1-2.2c-1.4-1.4-2.2-3.1-2.2-5.1v-5.8c0-2,0.7-3.7,2.2-5.1c1.4-1.4,3.1-2.1,5.1-2.1
		c1.4,0,2.7,0.3,3.8,1.1c0.1,0,0.2,0.1,0.3,0.1c0.3,0,0.4-0.1,0.4-0.3v-8.1c0-0.3,0.2-0.4,0.4-0.4h2c0.3,0,0.4,0.1,0.4,0.4v26.6
		C165.3,375.8,165.2,375.9,164.9,375.9z M162.5,363.4c0-1.2-0.4-2.3-1.3-3.2c-0.9-0.9-2-1.3-3.2-1.3c-1.2,0-2.3,0.4-3.2,1.3
		c-0.9,0.9-1.3,1.9-1.3,3.2v5.8c0,1.2,0.5,2.3,1.3,3.2c0.9,0.9,2,1.3,3.2,1.3s2.3-0.5,3.2-1.3c0.9-0.9,1.3-2,1.3-3.2V363.4z"/>
		<path class="st0" d="M183.5,367.5h-10.3c-0.3,0-0.4,0.2-0.4,0.4v1.2c0,1.3,0.5,2.3,1.3,3.2c0.9,0.9,2,1.4,3.2,1.4
		c1.6,0,3-0.5,4.3-1.4c0.2-0.2,0.4-0.1,0.5,0.1l1.1,1.6c0.2,0.2,0.1,0.4-0.1,0.6c-1.7,1.2-3.7,1.9-5.9,1.9c-2,0-3.7-0.7-5.1-2.2
		c-1.4-1.4-2.2-3.1-2.2-5.2V363c0-1.9,0.7-3.6,2-4.9c1.4-1.3,3-2,4.9-2c1.9,0,3.6,0.7,4.9,2c1.4,1.4,2,3,2,4.9v4
		C183.9,367.4,183.8,367.5,183.5,367.5z M181.2,363c0-1.1-0.4-2.1-1.2-3c-0.8-0.8-1.8-1.2-3-1.2c-1.1,0-2.1,0.4-2.9,1.2
		c-0.8,0.8-1.2,1.8-1.2,3v1.3c0,0.3,0.2,0.4,0.4,0.4h7.5c0.3,0,0.4-0.2,0.4-0.4V363z"/>
		<path class="st0" d="M39.4,290.2v19.3c0,3.6,1.3,6.7,3.9,9.4c2.6,2.6,5.6,3.9,9.4,3.9c3.6,0,6.7-1.2,9.2-3.9c2.6-2.6,4-5.7,4-9.4
		v-41.7c0-0.9,0.4-1.2,1.2-1.2h6.5c0.9,0,1.4,0.4,1.4,1.2v41.7c0,6.1-2.3,11.4-6.6,15.7c-4.4,4.4-9.6,6.6-15.7,6.6
		c-6.1,0-11.5-2.3-15.9-6.6c-4.4-4.4-6.5-9.6-6.5-15.7v-10L39.4,290.2z"/>
		<path class="st0" d="M220,281.6L209.7,310c-0.2,0.5-0.5,0.6-1,0.6c-0.4,0-0.7-0.1-0.9-0.6l-15.5-42.7c-0.4-0.9-0.9-1.4-1.6-1.4H184
		c-1.2,0-1.7,0.7-1.2,2l22.1,60.9c0.2,0.7,0.6,1.5,1.4,1.5h5.1c0.6,0,1.1-0.7,1.4-1.4l14.9-41.4L220,281.6z"/>
		<path class="st0" d="M314.6,291.7v37.1c0,0.9-0.5,1.4-1.4,1.4h-6.4c-0.9,0-1.4-0.5-1.4-1.4v-26.5L314.6,291.7z"/>
		<path class="st0" d="M373.1,276.3c-3.8-1.5-7.9-2.2-12.2-2.2c-2.4,0-4.4,0.7-6.1,2.5c-1.6,1.6-2.4,3.6-2.4,6c0,4.1,2,6.7,6.1,7.9
		l13.1,3.5c4.4,1.1,7.7,3.5,10.4,6.9c2.5,3.4,3.9,7.2,3.9,11.5c0,5.5-2,10.1-5.9,14c-3.9,3.7-8.5,5.7-13.9,5.7
		c-9.1,0-17.6-2.3-25.2-6.9c-0.9-0.5-1-1.1-0.5-2l3.2-5.5c0.4-0.7,1-0.7,1.7-0.4c6.4,3.7,13.4,5.6,20.7,5.6c2.9,0,5.4-1,7.5-3.1
		c2-2,3.1-4.5,3.1-7.5c0-2.1-0.8-4.1-2.1-6c-1.4-1.9-3.1-2.9-5.2-3.5l-13.2-3.6c-3.9-1-7-3.1-9.4-6.2c-2.4-3.1-3.5-6.6-3.5-10.4
		c0-4.9,1.6-9,5.1-12.5c3.5-3.5,7.6-5.1,12.5-5.1c5.5,0,10.7,0.9,15.7,2.9L373.1,276.3z"/>
		<path class="st0" d="M411.7,253.2c-1.1,1.2-2.6,1.9-4.4,1.9c-1.6,0-3.1-0.6-4.2-1.9c-1.2-1.1-1.9-2.6-1.9-4.2
		c0-1.7,0.6-3.2,1.9-4.4c1.1-1.3,2.6-1.8,4.2-1.8c1.7,0,3.2,0.5,4.4,1.8c1.2,1.1,1.9,2.6,1.9,4.4C413.6,250.5,413,252,411.7,253.2z
		 M410.6,330.1h-6.4c-1,0-1.4-0.5-1.4-1.4v-61c0-0.9,0.4-1.2,1.4-1.2h6.4c0.9,0,1.4,0.4,1.4,1.2v61
		C412,329.6,411.5,330.1,410.6,330.1z"/>
		<path class="st0" d="M522.2,302.3h-34c-0.9,0-1.4,0.5-1.4,1.4v3.9c0,4.2,1.5,7.7,4.4,10.6c3,3,6.5,4.5,10.6,4.5
		c5.2,0,10-1.5,14.2-4.5c0.6-0.5,1.2-0.4,1.7,0.2l3.7,5.4c0.5,0.6,0.4,1.4-0.4,1.9c-5.6,4.1-12.1,6.1-19.4,6.1
		c-6.6,0-12.2-2.4-17-7.1c-4.7-4.7-7.1-10.4-7.1-17.1v-20c0-6.4,2.3-11.7,6.7-16.2c4.5-4.4,9.9-6.6,16.1-6.6
		c6.4,0,11.7,2.2,16.2,6.7c4.5,4.5,6.6,9.9,6.6,16.1v13.4C523.5,301.8,523.1,302.3,522.2,302.3z M514.3,287.5c0-3.7-1.2-7-4-9.7
		c-2.7-2.7-6-4-9.7-4c-3.7,0-7,1.2-9.6,4c-2.7,2.7-4.1,6-4.1,9.7v4.2c0,0.9,0.5,1.4,1.4,1.4h24.9c0.9,0,1.2-0.5,1.2-1.4V287.5z"/>
		<path class="st0" d="M168.6,285.3v43.6c0,0.9-0.5,1.4-1.4,1.4h-6.4c-1,0-1.4-0.5-1.4-1.4v-43.6H168.6z"/>
		<path class="st0" d="M245.2,304.1v-16.5c0-6.4,2.3-11.7,6.7-16.2c4.5-4.4,9.9-6.6,16.1-6.6c6.4,0,11.7,2.2,16.2,6.7
		s6.6,9.9,6.6,16.1V301c0,0.9-0.4,1.4-1.2,1.4h-34c-0.9,0-1.4,0.5-1.4,1.4v3.9c0,1.1,0.1,2.2,0.3,3.3L245.2,304.1z M281.8,287.6
		c0-3.7-1.3-7-4-9.7c-2.7-2.8-6-4-9.7-4c-3.7,0-7,1.2-9.6,4c-2.7,2.7-4.1,6-4.1,9.7v4.3c0,0.9,0.5,1.4,1.4,1.4h24.9
		c0.9,0,1.3-0.5,1.3-1.4V287.6z"/>
		<path class="st0" d="M445.1,283.5V309c0,4,1.4,7.4,4.1,10.1c2.7,2.7,6.1,4.1,10.1,4.1c3.2,0,6.6-1,10-3.1c0.9-0.5,1.4-0.4,2,0.4
		l3.6,5.1c0.5,0.7,0.4,1.4-0.4,1.9c-4.5,3.2-9.6,4.9-15.2,4.9c-6.5,0-11.9-2.2-16.5-6.9s-6.9-10-6.9-16.5v-28.7L445.1,283.5z"/>
		<path class="st0" d="M130.4,313v-25.7c0-3.6-1.2-6.7-3.9-9.2c-2.6-2.6-5.7-3.9-9.4-3.9c-3.6,0-6.7,1.3-9.4,3.9
		c-2.5,2.5-3.9,5.6-3.9,9.2v41.7c0,0.9-0.4,1.4-1.4,1.4h-6.4c-0.9,0-1.4-0.5-1.4-1.4v-41.7c0-6.1,2.2-11.4,6.6-15.7
		c4.4-4.4,9.6-6.5,15.7-6.5c6.1,0,11.4,2.1,15.7,6.5c4.4,4.4,6.6,9.6,6.6,15.7V308L130.4,313z"/>
		<path class="st1" d="M508.8,238.5c-1.3,1.6-2.7,4.2-4.1,5.8c-1.6,1.4-3.8,4.7-5.3,6c0,0.3-1,1.4-1,1.4c-0.5,1.5-1,1.2-1.7,1.8
		c-1.2,1.2-2.5,1.3-3.3,0.6c-1.8-1.2,1.2-5.4,2.7-7.1c0.2-0.3,0.2-0.5,0.2-0.9c0.4-0.8,0.8-1.6,1.2-2.3c0.4-0.4,0.8-0.4,1.1-0.6
		c-0.1-0.8,0.9-1.8,1.1-2.5c0.5-0.6,0.3-1.7,1-2.4c0.9-0.8,1.1-1.3,1.5-2.3c0.4,0,1.1-0.7,1.1-0.7c0.2-1,0.4-2,0.9-2.9
		c0,0,0.3-0.4,0.5-0.4c0.9-1,1-2.5,1.8-3.3c0.6-0.4,1.9-0.6,2.8-0.4c1.5,0.4,3.2,1.1,4.5,3C514,234.5,510.8,236.6,508.8,238.5z"/>
		<path class="st1" d="M324.4,264.8c-4.2,0-6.6,1.9-9.7,7.4h-0.2V266h-17.1v5.4h4.9c2.2,0,2.9,0.5,2.9,2.7l0.2,27.9l9.1-10.7
		l0.1-11.1c0-5,3.2-11.4,9.6-11.4c1.2,0,2.4,0.2,3.2,1.1c-2.8,0.1-5.1,1.7-5.1,4.7c0,3.2,2.5,5,5.5,5c3.8,0,5.9-2.9,5.9-6.4
		C333.8,267.5,329.4,264.8,324.4,264.8z"/>
		<path class="st1" d="M376.6,267.9c2.9,0,5.1-1.8,6.5-5.1h5.2v33h-6.1c-1-8.3-4.2-14.6-9.1-19.5L376.6,267.9z"/>
		<rect x="159.6" y="242.7" class="st1" width="8.9" height="11.6"/>
		<path class="st1" d="M167.3,262.9c-3.1,4.7-5.6,6.3-14.9,7.1v3c2.3,0,5.9-0.3,6.8,2.5c0.3,1,0.2-0.1,0.2,10h9.1
		c0-10.1,0.3-17.1,1.3-22.5H167.3L167.3,262.9z"/>
		<path class="st1" d="M234,270.3c4.1,0,4.1,0.1,5.4,0.1c0.9,0,1.9-0.9,1.9-2.3c0-1.3-1-2.2-1.9-2.2c-1.3,0-2,0.6-10.3,0.6h-0.4
		c-8.7,0-8.9-0.6-10.2-0.6c-1,0-2,0.9-2,2.2c0,1.4,1,2.3,2,2.3c1.3,0,1.4-0.1,5.7-0.1L220,282l7.6,5.8L234,270.3z"/>
		<path class="st1" d="M263.4,321.7c4.5,2.8,9.8,3.9,14.3,3.9c8.9,0,13-3.2,13.8-3.2c0.7,0,0.7,0.8,0.7,1.1c0,0.7-10.3,8.7-21.2,8.7
		c-11.1,0-25.8-5.4-25.8-28l9.4,6.8C256.4,315.9,259.6,319.4,263.4,321.7"/>
		<path class="st1" d="M436,280.3v-4.9c-3.1-0.2-7,0-10,1.2l-0.8-0.6c1.4-4.1,6-6.9,10.6-6.9c2-1.2,1.9-12.4,3.6-14.5
		c0.7-0.8,3.2-2.4,5-4c0.8,1.3-1.4,17.4,0.8,17.7c8.2,1.4,16.7,1.8,24.4-0.6c1.6,1.2,0,2.7-0.7,3.7c-6.5,6-15.3,3.5-23.8,3.7v8.2
		L436,280.3z"/>
		<polygon class="st1" points="39.4,266.6 21.6,266.6 21.6,273.4 30.3,273.4 30.3,299.6 39.4,290.2 	"/>
		<g>
		<path class="st1" d="M140.1,325.7c-0.9-2.8-0.9-11.2-0.9-18.2l-9,5l0.2,9.8c0,4.1,0.6,7.5,1.4,10.2c5.6-2.1,11.2-3.8,15.9-5.3V324
			C146.2,325.1,142.6,325.6,140.1,325.7z"/>
	</g>
</g>
</svg>
